<svg width="16" height="12" viewBox="0 0 16 12" fill="none" xmlns="http://www.w3.org/2000/svg">
<path id="Vector" d="M1.2 12C0.88 12 0.6 11.8875 0.36 11.6625C0.12 11.4375 0 11.175 0 10.875V1.125C0 0.825 0.12 0.5625 0.36 0.3375C0.6 0.1125 0.88 0 1.2 0H14.8C15.12 0 15.4 0.1125 15.64 0.3375C15.88 0.5625 16 0.825 16 1.125V10.875C16 11.175 15.88 11.4375 15.64 11.6625C15.4 11.8875 15.12 12 14.8 12H1.2ZM14.8 2.15625L8.32 6.13125C8.26667 6.15625 8.21667 6.17813 8.17 6.19688C8.12333 6.21563 8.06667 6.225 8 6.225C7.93333 6.225 7.87667 6.21563 7.83 6.19688C7.78333 6.17813 7.73333 6.15625 7.68 6.13125L1.2 2.15625V10.875H14.8V2.15625ZM8 5.2125L14.72 1.125H1.3L8 5.2125ZM1.2 2.2875V1.55031V1.56403V1.125V1.55625V1.53915V2.2875Z" fill="black"/>
</svg>
