<svg width="16" height="20" viewBox="0 0 16 20" fill="none" xmlns="http://www.w3.org/2000/svg">
<path id="Vector" d="M1.5 20C1.0875 20 0.734375 19.8601 0.440625 19.5804C0.146875 19.3006 0 18.9643 0 18.5714V8.2381C0 7.84524 0.146875 7.50893 0.440625 7.22917C0.734375 6.9494 1.0875 6.80952 1.5 6.80952H3.25V4.52381C3.25 3.27222 3.71338 2.20536 4.64015 1.32321C5.56692 0.441072 6.68775 0 8.00265 0C9.31755 0 10.4375 0.441072 11.3625 1.32321C12.2875 2.20536 12.75 3.27222 12.75 4.52381V6.80952H14.5C14.9125 6.80952 15.2656 6.9494 15.5594 7.22917C15.8531 7.50893 16 7.84524 16 8.2381V18.5714C16 18.9643 15.8531 19.3006 15.5594 19.5804C15.2656 19.8601 14.9125 20 14.5 20H1.5ZM1.5 18.5714H14.5V8.2381H1.5V18.5714ZM8.0042 15.2381C8.53473 15.2381 8.9875 15.0632 9.3625 14.7135C9.7375 14.3638 9.925 13.9435 9.925 13.4524C9.925 12.9762 9.7361 12.5437 9.3583 12.1548C8.9805 11.7659 8.52633 11.5714 7.9958 11.5714C7.46527 11.5714 7.0125 11.7659 6.6375 12.1548C6.2625 12.5437 6.075 12.9802 6.075 13.4643C6.075 13.9484 6.2639 14.3651 6.6417 14.7143C7.0195 15.0635 7.47367 15.2381 8.0042 15.2381ZM4.75 6.80952H11.25V4.52381C11.25 3.66402 10.9343 2.9332 10.3029 2.33136C9.67157 1.7295 8.9049 1.42857 8.00295 1.42857C7.10098 1.42857 6.33333 1.7295 5.7 2.33136C5.06667 2.9332 4.75 3.66402 4.75 4.52381V6.80952Z" fill="black"/>
</svg>
